<svg width="48" height="48" viewBox="0 0 48 48" fill="none" xmlns="http://www.w3.org/2000/svg">
<rect width="48" height="48" fill="#323238"/>
<path d="M18 34H13V19H18V34ZM15.501 17C14.118 17 13 15.879 13 14.499C13 13.119 14.12 12 15.501 12C16.879 12 18 13.121 18 14.499C18 15.879 16.879 17 15.501 17V17ZM36 34H31.193V26.7C31.193 24.959 31.16 22.72 28.694 22.72C26.191 22.72 25.806 24.616 25.806 26.574V34H21V18.989H25.614V21.04H25.679C26.321 19.86 27.89 18.616 30.23 18.616C35.1 18.616 36 21.725 36 25.767V34Z" fill="white"/>
</svg>